<svg width="64" height="64" viewBox="0 0 64 64" fill="none" xmlns="http://www.w3.org/2000/svg">
<rect width="64" height="64" fill="#704EFF"/>
<path fill-rule="evenodd" clip-rule="evenodd" d="M31.1094 5.375C30.7784 5.375 30.4757 5.56183 30.3273 5.85774L16.968 32.4957C16.8319 32.767 16.8461 33.0893 17.0055 33.3475C17.1649 33.6058 17.4467 33.763 17.7501 33.763H26.9397L16.9442 57.4093C16.7758 57.8077 16.9237 58.2693 17.2923 58.4957C17.6608 58.722 18.1395 58.645 18.4186 58.3146L46.9186 24.5733C47.1383 24.3131 47.1872 23.949 47.0437 23.6401C46.9003 23.3313 46.5907 23.1336 46.2501 23.1336H35.6432L46.0976 6.72006C46.2692 6.45065 46.2803 6.10914 46.1267 5.8291C45.973 5.54906 45.679 5.375 45.3595 5.375H31.1094Z" fill="#FFDC50"/>
</svg>
